<svg height="86" width="340" xmlns="http://www.w3.org/2000/svg" xmlns:xlink="http://www.w3.org/1999/xlink"><linearGradient id="a" gradientTransform="matrix(.4226 -.9063 .9063 .4226 4226.9761 -6584.5938)" gradientUnits="userSpaceOnUse" x1="-7708.7969" x2="-7633.1528" y1="-803.36011" y2="-714.90741"><stop offset="0" stop-color="#f69923"/><stop offset=".3123" stop-color="#f79a23"/><stop offset=".83829999" stop-color="#e97826"/></linearGradient><linearGradient id="b"><stop offset=".3233" stop-color="#9e2064"/><stop offset=".63020003" stop-color="#c92037"/><stop offset=".75139999" stop-color="#cd2335"/><stop offset="1" stop-color="#e97826"/></linearGradient><linearGradient id="c" gradientTransform="matrix(.4226 -.9063 .9063 .4226 4226.9761 -6584.5938)" gradientUnits="userSpaceOnUse" x1="-8268.6387" x2="-7728.9585" xlink:href="#b" y1="-813.12323" y2="-813.12323"/><linearGradient id="d"><stop offset="0" stop-color="#282662"/><stop offset=".0954839" stop-color="#662e8d"/><stop offset=".78820002" stop-color="#9f2064"/><stop offset=".94870001" stop-color="#cd2032"/></linearGradient><linearGradient id="e" gradientTransform="matrix(.4226 -.9063 .9063 .4226 4226.9761 -6584.5938)" gradientUnits="userSpaceOnUse" x1="-8203.4922" x2="-7881.895" xlink:href="#d" y1="-758.99402" y2="-758.99402"/><linearGradient id="f" gradientTransform="matrix(.4226 -.9063 .9063 .4226 4226.9761 -6584.5938)" gradientUnits="userSpaceOnUse" x1="-8238.3281" x2="-7698.647" xlink:href="#b" y1="-818.15222" y2="-818.15222"/><linearGradient id="g" gradientTransform="matrix(.4226 -.9063 .9063 .4226 4226.9761 -6584.5938)" gradientUnits="userSpaceOnUse" x1="-8198.9678" x2="-7915.3501" xlink:href="#d" y1="-810.85059" y2="-810.85059"/><linearGradient id="h" gradientTransform="matrix(.4226 -.9063 .9063 .4226 4226.9761 -6584.5938)" gradientUnits="userSpaceOnUse" x1="-8238.3281" x2="-7698.647" xlink:href="#b" y1="-762.29712" y2="-762.29712"/><linearGradient id="i" gradientTransform="matrix(.4226 -.9063 .9063 .4226 4226.9761 -6584.5938)" gradientUnits="userSpaceOnUse" x1="-8271.8057" x2="-7732.125" xlink:href="#b" y1="-765.07068" y2="-765.07068"/><linearGradient id="j" gradientTransform="matrix(.4226 -.9063 .9063 .4226 4226.9761 -6584.5938)" gradientUnits="userSpaceOnUse" x1="-8238.3281" x2="-7698.647" xlink:href="#b" y1="-745.68481" y2="-745.68481"/><linearGradient id="k" gradientTransform="matrix(.4226 -.9063 .9063 .4226 4226.9761 -6584.5938)" gradientUnits="userSpaceOnUse" x1="-8238.3281" x2="-7698.647" xlink:href="#b" y1="-747.58557" y2="-747.58557"/><text fill="none" x="199.61313" y="196.18768"><tspan fill="none" x="199.61313" y="196.18768"/></text><g transform="matrix(.09561334 -.07017507 .07017507 .09561334 132.73733 36.368381)"><path d="m267.1 19.6c-8.4 5-22.4 19-39 39.3l15.3 28.9c10.7-15.4 21.7-29.2 32.7-41 .8-.9 1.3-1.4 1.3-1.4-.4.5-.9.9-1.3 1.4-3.6 3.9-14.4 16.5-30.7 41.6 15.7-.8 39.8-4 59.5-7.4 5.9-32.8-5.7-47.8-5.7-47.8s-14.8-23.9-32.1-13.6z" fill="url(#a)"/><path d="m241.1 184.4c.1 0 .2 0 .3-.1l-2.2.2c-.1.1-.3.1-.4.2.8-.1 1.6-.2 2.3-.3z" fill="none"/><path d="m225.5 236.1c-1.2.3-2.5.5-3.8.7 1.3-.2 2.6-.4 3.8-.7z" fill="none"/><path d="m119.3 352.2c.2-.4.3-.9.5-1.3 3.4-8.9 6.7-17.5 10-26 3.7-9.4 7.4-18.6 11-27.5 3.8-9.3 7.6-18.4 11.3-27.1 3.9-9.2 7.7-18 11.5-26.5 3.1-6.9 6.1-13.6 9.1-20.1 1-2.2 2-4.3 3-6.4 2-4.2 3.9-8.3 5.8-12.3 1.8-3.7 3.5-7.3 5.2-10.9.6-1.2 1.2-2.4 1.7-3.5.1-.2.2-.4.3-.6l-1.9.2-1.5-2.9c-.1.3-.3.6-.4.9-2.7 5.3-5.4 10.7-8 16.2-1.5 3.1-3 6.3-4.6 9.5-4.2 8.8-8.3 17.6-12.3 26.6-4.1 9-8.1 18.1-12 27.1-3.9 8.9-7.6 17.8-11.3 26.7s-7.3 17.7-10.8 26.5c-3.7 9.2-7.3 18.3-10.7 27.3-.8 2-1.6 4.1-2.3 6.1-2.8 7.3-5.5 14.4-8.1 21.5l2.4 4.7 2.1-.2c.1-.2.2-.4.2-.6 3.1-9.5 6.5-18.6 9.8-27.4z" fill="none"/><g fill="#be202e"><path d="m215.6 262.2c-2 .4-4 .7-6 1 1-.1 2.1-.3 3.1-.5 1-.1 2-.3 2.9-.5z"/><path d="m215.6 262.2c-2 .4-4 .7-6 1 1-.1 2.1-.3 3.1-.5 1-.1 2-.3 2.9-.5z" opacity=".35"/><path d="m220.8 236.9c-.1 0-.1 0 0 0 .3 0 .6-.1.9-.1 1.3-.2 2.6-.4 3.8-.7-1.5.3-3.1.5-4.7.8z"/><path d="m220.8 236.9c-.1 0-.1 0 0 0 .3 0 .6-.1.9-.1 1.3-.2 2.6-.4 3.8-.7-1.5.3-3.1.5-4.7.8z" opacity=".35"/></g><path d="m198.2 162.4c4.7-8.7 9.4-17.2 14.1-25.5 4.9-8.6 9.9-16.9 15-25 .3-.5.6-1 .9-1.4 5-7.9 10-15.5 15.1-22.8l-15.3-28.8c-1.1 1.4-2.3 2.8-3.5 4.3-4.4 5.5-9 11.4-13.7 17.7-5.3 7.1-10.7 14.6-16.3 22.5-5.1 7.3-10.3 15-15.5 22.9-4.4 6.8-8.8 13.7-13.2 20.8-.2.3-.3.5-.5.8l19.9 39.3c4.4-8.3 8.7-16.6 13-24.8z" fill="url(#c)"/><path d="m107.5 384.1c-2.6 7.2-5.3 14.6-7.9 22.2 0 .1-.1.2-.1.3-.4 1.1-.8 2.1-1.1 3.2-1.8 5.1-3.3 9.7-6.9 20.1 5.9 2.7 10.6 9.7 15 17.7-.5-8.3-3.9-16.1-10.4-22.1 28.9 1.3 53.9-6 66.7-27.2 1.1-1.9 2.2-3.9 3.2-6-5.9 7.4-13.1 10.6-26.8 9.8h-.1.1c20.1-9 30.2-17.7 39.1-32 2.1-3.4 4.2-7.1 6.3-11.2-17.6 18.1-38 23.2-59.5 19.3l-16.1 1.8c-.5 1.4-1 2.7-1.5 4.1z" fill="url(#e)"/><path d="m115 348c3.5-9 7.1-18.1 10.7-27.3 3.5-8.8 7.1-17.6 10.8-26.5s7.5-17.8 11.3-26.7c3.9-9.1 7.9-18.1 12-27.1 4-8.9 8.2-17.8 12.3-26.6 1.5-3.2 3-6.3 4.6-9.5 2.6-5.4 5.3-10.8 8-16.2.1-.3.3-.6.4-.9l-19.7-39.2c-.3.5-.6 1.1-1 1.6-4.6 7.6-9.3 15.3-13.8 23.2-4.6 8-9.1 16.1-13.5 24.4-3.7 7-7.3 14-10.9 21.1-.7 1.4-1.4 2.9-2.1 4.3-4.3 8.9-8.3 17.6-11.8 25.9-4 9.4-7.5 18.4-10.6 26.9-2 5.6-3.9 11-5.6 16.2-1.4 4.4-2.7 8.9-4 13.3-3 10.4-5.5 20.8-7.6 31.2l20 39.5c2.6-7.1 5.4-14.2 8.1-21.5.8-2 1.6-4 2.4-6.1z" fill="url(#f)"/><path d="m84.2 337.5c-2.5 12.6-4.3 25.2-5.2 37.8 0 .4-.1.9-.1 1.3-6.2-10-23-19.8-22.9-19.7 12 17.4 21.1 34.6 22.4 51.5-6.4 1.3-15.2-.6-25.3-4.3 10.6 9.7 18.5 12.4 21.6 13.1-9.7.6-19.8 7.3-30 15 14.9-6.1 27-8.5 35.6-6.5-13.7 38.7-27.4 81.5-41.1 126.9 4.2-1.2 6.7-4.1 8.1-7.9 2.4-8.2 18.7-62.2 44.1-133.1.7-2 1.5-4 2.2-6.1.2-.6.4-1.1.6-1.7 2.7-7.4 5.5-15 8.4-22.8.7-1.8 1.3-3.5 2-5.3v-.1l-20-39.5c-.2.5-.3.9-.4 1.4z" fill="url(#g)"/><path d="m188.4 190.6c-.6 1.2-1.1 2.3-1.7 3.5-1.7 3.6-3.5 7.2-5.2 10.9-1.9 4-3.8 8.1-5.8 12.3-1 2.1-2 4.2-3 6.4-3 6.5-6 13.2-9.1 20.1-3.8 8.5-7.6 17.3-11.5 26.5-3.7 8.7-7.5 17.8-11.3 27.1-3.6 8.9-7.3 18-11 27.5-3.3 8.4-6.6 17.1-10 26-.2.4-.3.9-.5 1.3-3.3 8.8-6.7 17.9-10.1 27.2-.1.2-.2.4-.2.6l16.1-1.8c-.3-.1-.6-.1-1-.2 19.3-2.4 44.9-16.8 61.4-34.6 7.6-8.2 14.5-17.8 20.9-29.1 4.8-8.4 9.2-17.7 13.5-28.1 3.7-9 7.3-18.8 10.7-29.4-4.4 2.3-9.5 4-15.1 5.2-1 .2-2 .4-3 .6s-2 .3-3.1.5c18-6.9 29.3-20.2 37.5-36.6-4.7 3.2-12.4 7.4-21.6 9.5-1.2.3-2.5.5-3.8.7-.3 0-.6.1-1 .1 6.2-2.6 11.5-5.5 16.1-9 1-.7 1.9-1.5 2.8-2.3 1.4-1.2 2.7-2.5 4-3.8.8-.9 1.6-1.7 2.4-2.6 1.8-2.1 3.5-4.4 5-6.9.5-.8 1-1.5 1.4-2.3.6-1.2 1.2-2.3 1.7-3.4 2.5-5 4.5-9.5 6.1-13.5.8-2 1.5-3.8 2.1-5.5.2-.7.5-1.3.7-2 .6-1.9 1.2-3.6 1.6-5.1.6-2.2 1-4 1.2-5.3-.6.5-1.3 1-2.1 1.4-5.4 3.2-14.7 6.2-22.2 7.6l14.8-1.6-14.8 1.6c-.1 0-.2 0-.3.1-.7.1-1.5.2-2.3.4.1-.1.3-.1.4-.2l-50.6 5.5c.1.4 0 .6-.1.7z" fill="url(#h)"/><path d="m245.4 88.4c-4.5 6.9-9.4 14.8-14.7 23.6-.3.5-.6.9-.8 1.4-4.6 7.7-9.4 16.1-14.5 25.4-4.4 8-9 16.5-13.8 25.8-4.2 8-8.4 16.5-12.9 25.5l50.6-5.5c14.7-6.8 21.3-12.9 27.7-21.8 1.7-2.4 3.4-5 5.1-7.7 5.2-8.1 10.3-17 14.8-25.9 4.4-8.6 8.3-17.1 11.2-24.7 1.9-4.9 3.4-9.4 4.5-13.4.9-3.5 1.6-6.8 2.2-10-19.6 3.3-43.7 6.5-59.4 7.3z" fill="url(#i)"/><path d="m212.7 262.8c-1 .2-2 .3-3.1.5 1-.2 2-.4 3.1-.5z" fill="#be202e"/><path d="m212.7 262.8c-1 .2-2 .3-3.1.5 1-.2 2-.4 3.1-.5z" fill="#be202e" opacity=".35"/><path d="m212.7 262.8c-1 .2-2 .3-3.1.5 1-.2 2-.4 3.1-.5z" fill="url(#j)"/><path d="m220.7 236.9c.3 0 .6-.1 1-.1-.3 0-.6.1-1 .1z" fill="#be202e"/><path d="m220.7 236.9c.3 0 .6-.1 1-.1-.3 0-.6.1-1 .1z" fill="#be202e" opacity=".35"/><path d="m220.7 236.9c.3 0 .6-.1 1-.1-.3 0-.6.1-1 .1z" fill="url(#k)"/></g><g><path d="m23.541406 2.7166473h13.1q1.6 0 3.2 0 1.7 0 2.4.7.6.5.7 1.5.1.9.3 1.8.2 1.6.4 3.2999997.3 1.6.5 3.3 1.1 6.3 1.8 12.8.8 6.5 1.9 12.9.4 2 .6 4.1.2 2.1.6 4.1.1.5.2 1 .1.5.5.8.2.1.3.2.2.1.5-.1.8-.2 1.3-1.2.5-1 1-1.8 1.2-2.3 2.3-4.5 1.1-2.3 2.4-4.6 3.2-6.1 6.4-12.2 3.3-6.2 6.5-12.4.8-1.6 1.6-3.0999997.9-1.6 1.7-3.2.4-.8.9-1.6.5-.8 1.4-1.3.7-.5 1.6-.5 1 0 2 0h6.5 6.9q.9 0 1.8 0 1 0 1.4.4 1 .6.6 2.3-.3 1.6-.6 3.3l-3 14.9999997-7.5 37.2-1.7 8.7q-.2 1.1-.5 2.2-.3 1-1 1.5-.7.5-1.6.6-.9 0-2 0h-4.8-2.7q-.7-.2-1.3-.3-.5-.1-.8-.7-.3-.5-.2-1.3.2-.8.4-1.7l1-5.1 5.2-25.7q.2-1.4.4-2.6.3-1.3.5-2.6.2-.8.4-1.6.2-.9.2-1.7-.1-.7 0-1.5.2-.8-.3-1-.3-.1-.5.1-.2.2-.3.3-.5.4-.9 1-.3.5-.6 1-.9 1.5-1.8 3.1-.8 1.6-1.8 3.2-.3.6-.6 1.2-.2.6-.6 1.2-.8 1.3-1.5 2.6-.6 1.3-1.4 2.6-.2.3-.3.7-.1.3-.3.6-.6.9-1.1 1.9-.4 1-1.1 2-.6.9-1.1 1.9-.4 1-1 2-1.8 2.9-3.3 5.9-1.5 2.9-3.1 5.8-.3.3-.4.6 0 .3-.3.6-.7 1.1-1.3 2.3-.5 1.1-1.2 2.2-.4.7-.8 1.3-.4.6-.9 1-.6.4-1.1.5-.5 0-1.3.2h-2.3q-.7 0-1.7.1-.9 0-1.9 0-.9 0-1.7-.1-.8-.1-1.1-.4-.7-.5-.9-1.1-.1-.7-.4-1.6-.2-1.2-.3-2.4-.1-1.3-.4-2.5l-.1-.9q-.3-1.2-.4-2.5-.1-1.4-.4-2.6 0-.3 0-.5 0-.3-.1-.6-.3-.9-.4-1.9-.1-1-.3-2 0-.2 0-.5 0-.3-.1-.5-.2-1-.3-2 0-1-.3-2-.4-2-.7-4.2-.2-2.2-.6-4.3-.4-2.5-.7-5.1-.2-2.6-.9-5-.2-1.4-.6-2.3-.2-.2-.4-.3-.1-.2-.4 0-.6.3-.8 1-.1.7-.4 1.4-.4.7-.5 1.5-.1.7-.2 1.5-.2 1.1-.5 2.2-.2 1.1-.5 2.2l-5.3 26.6-1 4.9q-.2.8-.4 1.6-.1.8-.6 1.3-.5.7-1.7.9-.7.2-1.5.2-.8-.1-1.6-.1h-5.2q-1.1000002 0-2.0000002 0-.9-.1-1.4-.6-.5-.5-.4-1.5.2-1.1.4-2.2l1.7-8.8 7.5000002-37.2 2.8-13.9999997q.1-.6.2-1.4.2-.9.4-1.7.2-.8.4-1.5.3-.8.5-1.2.6-.7 1.8-1 .3-.1.4 0 .2 0 .5-.1z"/><path d="m143.06641 70.016647q0 1.1-.2 2.2-.2 1.1-1.3 1.5-.7.3-1.5.3-.8 0-1.6 0h-5.4q-.9 0-1.8 0-.8-.1-1.2-.5-.6-.4-.8-1.1-.2-.8-.7-1.3-.2-.2-.5-.3-.2-.2-.7-.1-.6.2-1.1.5-.5.3-1 .5-.6.4-1.3.7-.6.3-1.3.6-1.4.6-2.9 1-1.5.3-3 .7-.8.2-1.5.2-.6.1-1.3.2-.3 0-.6 0-.3.1-.6.1h-1.1q-1.1.2-2 0h-.9q-.7-.2-1.4-.2-.6.1-1.2-.1-.9-.2-1.8-.4-.9-.1-1.6-.5-2.7-1.1-4.400004-2.8-1.7-1.8-2.3-4.7-.2-.7-.3-1.5 0-.8-.1-1.7-.1-.5 0-1 .2-.5.2-1 0-.3.1-1.2.2-1 .4-1.4.4-1 .5-1.7.5-1.1 1-2.2.6-1.2 1.3-2.1 2.200004-2.9 4.700004-4.4 2.5-1.5 6.2-2.6 1.4-.5 2.8-.7 1.4-.2 2.9-.5.8-.2 1.7-.2 1-.1 1.9-.3.7-.2 1.4-.1.7 0 1.6-.2.7-.2 1.4-.2.7 0 1.5-.2 2.2-.5 4-.8 1.9-.4 3.6-1.8 1-.9 1.6-2 .1-.3.1-.5 0-.2.1-.4.2-.2.2-.6.1-.4.2-.6 0-.4 0-.8 0-.4 0-.7-.4-3-3.4-4.1-.8-.3-2.1-.4-1.2-.2-2.5-.1-1.3 0-2.6.2-1.2.2-2.1.5-.7.2-1.3.6-.6.3-1.2.7-.6.4-1.3 1.1-.7.7-1 1.3-.7 1-1.2 1.9-.5.9-1.7 1.2-.8.2-1.7.2-.9 0-1.8 0h-3.8q-.5 0-1.1.1-.5 0-.8-.1h-.9q-.2-.1-.5-.1-.3 0-.5-.2-.7-.2-.8-1.3 0-.5.2-1 .2-.5.4-.9.5-1.1 1-2 .6-1 1.2-1.8.4-.5.8-1 .4-.5.8-1 1-1.1 2.4-2.1.3-.1.7-.5.6-.4 1-.7.5-.3 1.1-.6 1.9-1.1 3.9-1.7 2.1-.7 4.2-1.3 1.3-.3 2.6-.4 1.3-.1 2.7-.4.4-.1 1.2 0 .8.1 1.1-.1 4.1-.1 7.7.3 3.7.4 6.5 1.5 2.9 1.1 4.7 3 1.9 1.8 2.5 4.7.3 1.7 0 3.9-.3 2.2-.8 4.5l-4.5 22.3q-.3 1.9-.7 3.9-.4 1.9-.3 3.5 0 .3-.1.7 0 .3 0 .6zm-11.6-15.4q.2-.5.3-1.1.1-.7.1-1.2 0-.6.1-1.1.1-.5-.3-.8-.4-.4-1.4-.4-.4.1-.7.2-.3 0-.8.1-.7.2-1.5.3-.8.1-1.7.3-.3.1-.9.1-1.4.3-2.7.4-1.3.1-2.6.5-.8.2-1.6.4-.7.1-1.4.4-2.3.9-4.1 2.7-1.8 1.8-2.1 5-.1 1.7.6 2.8.4 1.1 1.7 1.8 1.3.6 2.9.9 1.6.3 3.4.2 1.9-.2 3.6-.7 2.8-.8 4.6-2.5 1.9-1.8 3.2-4.4.3-.7.5-1.4.2-.8.6-1.6z"/><path d="m161.28828 22.416647h7.3q1.1 0 2.1.1 1 0 1.6.4 1 .7 1 2.6.1 1.8.4 3.2.4 3.3.7 6.8.3 3.4.7 6.8.4 2.4.6 4.9.2 2.5.6 4.8.1.9.2 1.9.2 1 1.3 1 .3-.2.4-.2.1-.1.3-.3.4-.5.7-1 .3-.5.6-1.1.8-1.1 1.2-2.3.5-1.2 1.2-2.3 2.2-4.2 4.3-8.4 2.1-4.3 4.3-8.5.8-1.2 1.3-2.4.6-1.3 1.2-2.4.4-.8.8-1.6.5-.8 1.2-1.3.3-.2 1.4-.6.6-.2 1.3-.1.7 0 1.3 0h4.9q1.1 0 2 .1 1 0 1.4.5.5.5.1 1.5-.3.9-.6 1.5-.8 1.4-1.6 3-.8 1.5-1.6 2.9-.4.7-.7 1.4-.3.6-.6 1.2-.7 1.1-1.3 2.2-.6 1.1-1.2 2.2-.1.3-.3.7-.1.3-.3.6-.9 1.5-1.7 3.1-.8 1.5-1.6 3-1.7 3-3.3 6.2-1.6 3.1-3.4 6.1-.8 1.4-1.5 2.8-.6 1.3-1.4 2.7-.3.5-.5.9-.2.3-.5.8-.6 1.1-1.2 2.3-.5 1.1-1.2 2.2-.7 1.1-1.3 2.1-.6.9-1.7 1.3-.9.3-1.8.3-.9-.1-1.8-.1h-6.5q-1.1 0-2.2 0-1 0-1.7-.4-.6-.5-.8-1.2-.1-.8-.2-1.7-.3-1.2-.5-2.5-.1-1.3-.3-2.5-.1-.4-.1-.7 0-.4-.1-.9-.3-1.2-.4-2.5-.1-1.3-.4-2.6-.1-.5-.1-.9 0-.5-.1-1-.2-.9-.3-1.8-.1-1-.3-1.9-.1-.3-.1-.6.1-.4 0-.7-.2-.9-.3-1.8-.1-.9-.3-1.9-.4-2.3-.7-4.7-.3-2.5-.6-4.9-.6-2.7-.9-5.4-.2-2.8-.7-5.5l-.3-2.7q-.1-.3-.1-.7.1-.5.4-.9.4-.7 1.6-1 .5 0 .7-.1z" fill="none"/><path d="m259.04141 47.716647q0 .8-.4 1.8-.4 1-1 1.3-.5.4-1.5.6-1 .1-2.2.2-1.1 0-2.3 0-1.1-.1-2-.1h-24.4q-.7 0-1.4 0-.6 0-1.1.2-.9.4-1.2.8-.2.2-.6.8-.3.5-.3 1 .1.6 0 1.2 0 .5.1 1.1.3 2.4 1.1 4 .9 1.5 2.6 2.7.7.5 1.5.7.9.1 1.7.4.8.2 2.1.3 1.4.1 2.5-.1h.9q1-.2 1.9-.4.9-.3 1.8-.6 1.1-.5 2.5-1.3 1.4-.8 2.2-1.6.6-.7 1.3-1.3.7-.7 1.5-1 1.1-.5 2.6-.4 1.6 0 2.9 0 .6 0 1.2 0 .7-.1 1.2.1h1q.9.2 1.3.5.3.2.2.9 0 .7-.3 1.2-.8 1.4-1.7 2.5-.8 1.1-1.8 2.2-2.8 3.3-6 5.3-3.2 2-7.7 3.4-1.2.4-2.3.5-1.1.1-2.4.4-.4.1-.9 0-.4 0-.8.1h-1.1q-.6.2-1.2.1-.6 0-1.1-.1-.8-.1-1.4 0-.6.1-1.3-.1-.5-.2-1.1-.2-.6 0-1-.2-1.1-.2-2.2-.5-1-.2-1.8-.7-1-.4-1.9-.7-.9-.4-1.6-.9-2.8-2-4.8-4.6-1.9-2.7-2.8-6.2-.3-1.1-.4-2.2 0-1.2-.3-2.4 0-.4 0-.7.1-.4.1-.8-.1-1.2 0-2.6.2-1.4.4-2.8.1-.5.1-1.1.1-.6.3-1.1l.3-1.2.8-2.4q.7-1.7 1.3-3.3.6-1.6 1.5-3 6.4-10.4 17.6-14.7 1.5-.6 3-.8 1.5-.3 3.2-.7.8-.1 1.5-.1.7 0 1.5-.1 5.1-.1 8.5 1.2 3.4 1.2 5.9 3.2.8.6 1.5 1.4.8.7 1.3 1.5.2.5.7.8.6 1.1 1 2.3.5 1.1 1.1 2.3.3.9.4 1.9.2.9.4 2 .2 1.3.2 2.7.1 1.4.2 2.8 0 .8-.3 1.8-.2.9-.1 1.7zm-13.9-5.9q.9-1 .6-2.4-.2-1.5-.3-2.2-.9-2.7-2.9-4.1-2-1.5-6.1-1.6-.3.2-.7.1-.4-.1-.7 0-.6.2-1.2.3-.6 0-1.1.2-4.7 1.4-7.6 5.5-.3.4-.7 1.1-.4.6-.6 1.3-.2.6-.2 1.2 0 .6.5 1 .7.5 2.1.5 1.4 0 2.7 0h11.1q1.4 0 2.9 0 1.6-.1 2.2-.9z"/><path d="m302.16328 21.116647q6-.2 9.6 1.7 3.7 1.9 5.2 5.6.5 1.1.6 2.4.2 1.2.3 2.5.1.8 0 1.5-.1.7 0 1.4-.2.6-.1.8-.1 1.4-.4 2.9-.3 1.5-.6 2.9l-1.7 8.9-3.3 16.2q-.4 1.9-.8 3.7-.4 1.7-1.9 2.2-.6.2-1.4.2-.8 0-1.6 0h-5.4q-1.2 0-2.1-.1-.9-.2-1.3-.9-.3-.6-.2-1.5.2-1 .4-2.1l1.4-7 3-14.9q.7-3.7 1-6.8.4-3.2-.7-5.4-1-2-3.5-2.8-.5-.2-1.1-.2-.5 0-1-.2-.5-.1-1.3 0-.7 0-1.1.1-.5.1-.8.1-.3 0-.6.1-2.4.6-4 1.6-3.7 2.3-5.2 6.7-1.4 4.4-2.5 9.9l-2.5 12.5-1.2 6.1q-.2.9-.4 1.8-.2.9-.6 1.5-.7 1.1-1.9 1.3-1.1.2-2.7.2h-5q-1.1 0-2.2-.1-1.1-.1-1.4-.7-.6-.9-.2-2.6.4-1.7.7-3.2l2.7-13.6 4.4-22 1.1-5.1q.2-1.1.4-2 .2-.9.9-1.5.2-.3.7-.4.5-.2 1-.3h.5q.5-.1 1-.1.6 0 1.1 0h4.2q.8 0 1.5.1.8 0 1.4.2.6.3.7.9.2.6.2 1.4 0 .4-.1.7-.1.3 0 .6.1.5.2.6.2.1.5.3 1 .1 1.9-.7.9-.9 1.8-1.4 3.1-2 6.6-3.2 1-.3 1.9-.4 1-.1 2.2-.3.3-.1.9 0 .6 0 .8-.1z"/></g><path d="m326.92482 21.038048q.1.08.1.34 0 .26-.1.48l-.02.16q-.08.18-.18.3-.08.1-.26.16-.18.04-.5.04-.32-.02-.54-.02h-.3q-.1.04-.18.02-.08-.02-.16.02-.22.08-.38.38-.06.1-.08.24-.02.14-.04.28l-.96 4.72q-.02.1-.02.18 0 .08-.04.16l-.04.16q-.02.06-.04.12 0 .06-.06.1-.08.16-.26.22-.1.04-.24.04-.12 0-.28 0-.28 0-.62 0-.34 0-.46-.16-.06-.12-.04-.28.04-.16.08-.36l.94-4.72q.02-.1.04-.2.04-.1.02-.18l.04-.28q.02-.32-.2-.4-.18-.1-.54-.08-.34.02-.6.02-.1 0-.2.02-.08 0-.14-.02-.08-.04-.14-.02-.06 0-.12-.02-.2-.1-.18-.32.02-.22.08-.52.02-.12.04-.22.04-.1.1-.2.06-.1.16-.14.1-.06.2-.1.06-.02.08 0 .04 0 .1-.02h5.34q.18 0 .34.02.16 0 .26.08zm10.64.04q.08.14.04.32-.02.18-.06.4l-1.3 6.5q-.04.22-.1.4-.04.16-.14.28-.14.16-.44.16-.28 0-.56 0-.12 0-.26.02-.12 0-.2-.04-.18-.06-.22-.18-.02-.12-.02-.3l.06-.34q0-.06.02-.14.02-.1.04-.18l.52-2.54q.04-.24.08-.48.06-.24.06-.44-.02-.1-.02-.16 0-.08-.06-.12-.02-.02-.06-.02-.06.04-.14.08-.2.24-.36.54-.16.3-.34.58-.36.62-.7 1.26-.34.62-.7 1.22-.16.28-.34.64-.18.34-.42.5-.12.08-.28.1-.16 0-.34 0h-.3q-.1-.04-.18-.06-.08-.04-.14-.1-.06-.06-.08-.16-.02-.1-.04-.2-.06-.18-.08-.36-.02-.2-.06-.4-.12-.58-.2-1.18-.08-.62-.2-1.2-.06-.34-.12-.68-.04-.34-.22-.58-.04 0-.06.02-.02 0-.04 0-.1.08-.14.18-.06.1-.08.2 0 .08-.04.18l-.06.34q-.04.08-.06.16-.02.08-.02.14l-.48 2.32q-.04.26-.12.64-.06.36-.18.52-.06.04-.12.1-.04.04-.1.06-.1.04-.24.06-.12 0-.28 0-.26 0-.52 0-.26 0-.4-.12-.1-.08-.1-.26.02-.18.06-.4l1.32-6.6q.04-.18.08-.34.06-.18.14-.28.1-.14.32-.18.06-.02.08 0 .04 0 .1-.02h1.32q.22 0 .42 0 .2 0 .3.1.16.12.18.38.04.26.1.48.1.56.2 1.14.1.56.2 1.14.08.3.12.62.06.32.12.62.04.12.06.26.04.12.16.16.1.04.18-.04.1-.08.14-.14.2-.22.32-.46.14-.26.28-.5.42-.66.78-1.34.38-.7.8-1.36.16-.28.32-.58.18-.32.48-.44.14-.04.28-.04.16 0 .32 0h.88q.12 0 .24 0 .12-.02.22 0h.1q.08.04.16.06.1.02.12.08z"/><g transform="matrix(.13272567 .01947468 -.01947468 .13272567 170.19741 12.570146)"><path d="m267.1 19.6c-8.4 5-22.4 19-39 39.3l15.3 28.9c10.7-15.4 21.7-29.2 32.7-41 .8-.9 1.3-1.4 1.3-1.4-.4.5-.9.9-1.3 1.4-3.6 3.9-14.4 16.5-30.7 41.6 15.7-.8 39.8-4 59.5-7.4 5.9-32.8-5.7-47.8-5.7-47.8s-14.8-23.9-32.1-13.6z" fill="url(#a)"/><path d="m241.1 184.4c.1 0 .2 0 .3-.1l-2.2.2c-.1.1-.3.1-.4.2.8-.1 1.6-.2 2.3-.3z" fill="none"/><path d="m225.5 236.1c-1.2.3-2.5.5-3.8.7 1.3-.2 2.6-.4 3.8-.7z" fill="none"/><path d="m119.3 352.2c.2-.4.3-.9.5-1.3 3.4-8.9 6.7-17.5 10-26 3.7-9.4 7.4-18.6 11-27.5 3.8-9.3 7.6-18.4 11.3-27.1 3.9-9.2 7.7-18 11.5-26.5 3.1-6.9 6.1-13.6 9.1-20.1 1-2.2 2-4.3 3-6.4 2-4.2 3.9-8.3 5.8-12.3 1.8-3.7 3.5-7.3 5.2-10.9.6-1.2 1.2-2.4 1.7-3.5.1-.2.2-.4.3-.6l-1.9.2-1.5-2.9c-.1.3-.3.6-.4.9-2.7 5.3-5.4 10.7-8 16.2-1.5 3.1-3 6.3-4.6 9.5-4.2 8.8-8.3 17.6-12.3 26.6-4.1 9-8.1 18.1-12 27.1-3.9 8.9-7.6 17.8-11.3 26.7s-7.3 17.7-10.8 26.5c-3.7 9.2-7.3 18.3-10.7 27.3-.8 2-1.6 4.1-2.3 6.1-2.8 7.3-5.5 14.4-8.1 21.5l2.4 4.7 2.1-.2c.1-.2.2-.4.2-.6 3.1-9.5 6.5-18.6 9.8-27.4z" fill="none"/><g fill="#be202e"><path d="m215.6 262.2c-2 .4-4 .7-6 1 1-.1 2.1-.3 3.1-.5 1-.1 2-.3 2.9-.5z"/><path d="m215.6 262.2c-2 .4-4 .7-6 1 1-.1 2.1-.3 3.1-.5 1-.1 2-.3 2.9-.5z" opacity=".35"/><path d="m220.8 236.9c-.1 0-.1 0 0 0 .3 0 .6-.1.9-.1 1.3-.2 2.6-.4 3.8-.7-1.5.3-3.1.5-4.7.8z"/><path d="m220.8 236.9c-.1 0-.1 0 0 0 .3 0 .6-.1.9-.1 1.3-.2 2.6-.4 3.8-.7-1.5.3-3.1.5-4.7.8z" opacity=".35"/></g><path d="m198.2 162.4c4.7-8.7 9.4-17.2 14.1-25.5 4.9-8.6 9.9-16.9 15-25 .3-.5.6-1 .9-1.4 5-7.9 10-15.5 15.1-22.8l-15.3-28.8c-1.1 1.4-2.3 2.8-3.5 4.3-4.4 5.5-9 11.4-13.7 17.7-5.3 7.1-10.7 14.6-16.3 22.5-5.1 7.3-10.3 15-15.5 22.9-4.4 6.8-8.8 13.7-13.2 20.8-.2.3-.3.5-.5.8l19.9 39.3c4.4-8.3 8.7-16.6 13-24.8z" fill="url(#c)"/><path d="m107.5 384.1c-2.6 7.2-5.3 14.6-7.9 22.2 0 .1-.1.2-.1.3-.4 1.1-.8 2.1-1.1 3.2-1.8 5.1-3.3 9.7-6.9 20.1 5.9 2.7 10.6 9.7 15 17.7-.5-8.3-3.9-16.1-10.4-22.1 28.9 1.3 53.9-6 66.7-27.2 1.1-1.9 2.2-3.9 3.2-6-5.9 7.4-13.1 10.6-26.8 9.8h-.1.1c20.1-9 30.2-17.7 39.1-32 2.1-3.4 4.2-7.1 6.3-11.2-17.6 18.1-38 23.2-59.5 19.3l-16.1 1.8c-.5 1.4-1 2.7-1.5 4.1z" fill="url(#e)"/><path d="m115 348c3.5-9 7.1-18.1 10.7-27.3 3.5-8.8 7.1-17.6 10.8-26.5s7.5-17.8 11.3-26.7c3.9-9.1 7.9-18.1 12-27.1 4-8.9 8.2-17.8 12.3-26.6 1.5-3.2 3-6.3 4.6-9.5 2.6-5.4 5.3-10.8 8-16.2.1-.3.3-.6.4-.9l-19.7-39.2c-.3.5-.6 1.1-1 1.6-4.6 7.6-9.3 15.3-13.8 23.2-4.6 8-9.1 16.1-13.5 24.4-3.7 7-7.3 14-10.9 21.1-.7 1.4-1.4 2.9-2.1 4.3-4.3 8.9-8.3 17.6-11.8 25.9-4 9.4-7.5 18.4-10.6 26.9-2 5.6-3.9 11-5.6 16.2-1.4 4.4-2.7 8.9-4 13.3-3 10.4-5.5 20.8-7.6 31.2l20 39.5c2.6-7.1 5.4-14.2 8.1-21.5.8-2 1.6-4 2.4-6.1z" fill="url(#f)"/><path d="m84.2 337.5c-2.5 12.6-4.3 25.2-5.2 37.8 0 .4-.1.9-.1 1.3-6.2-10-23-19.8-22.9-19.7 12 17.4 21.1 34.6 22.4 51.5-6.4 1.3-15.2-.6-25.3-4.3 10.6 9.7 18.5 12.4 21.6 13.1-9.7.6-19.8 7.3-30 15 14.9-6.1 27-8.5 35.6-6.5-13.7 38.7-27.4 81.5-41.1 126.9 4.2-1.2 6.7-4.1 8.1-7.9 2.4-8.2 18.7-62.2 44.1-133.1.7-2 1.5-4 2.2-6.1.2-.6.4-1.1.6-1.7 2.7-7.4 5.5-15 8.4-22.8.7-1.8 1.3-3.5 2-5.3v-.1l-20-39.5c-.2.5-.3.9-.4 1.4z" fill="url(#g)"/><path d="m188.4 190.6c-.6 1.2-1.1 2.3-1.7 3.5-1.7 3.6-3.5 7.2-5.2 10.9-1.9 4-3.8 8.1-5.8 12.3-1 2.1-2 4.2-3 6.4-3 6.5-6 13.2-9.1 20.1-3.8 8.5-7.6 17.3-11.5 26.5-3.7 8.7-7.5 17.8-11.3 27.1-3.6 8.9-7.3 18-11 27.5-3.3 8.4-6.6 17.1-10 26-.2.4-.3.9-.5 1.3-3.3 8.8-6.7 17.9-10.1 27.2-.1.2-.2.4-.2.6l16.1-1.8c-.3-.1-.6-.1-1-.2 19.3-2.4 44.9-16.8 61.4-34.6 7.6-8.2 14.5-17.8 20.9-29.1 4.8-8.4 9.2-17.7 13.5-28.1 3.7-9 7.3-18.8 10.7-29.4-4.4 2.3-9.5 4-15.1 5.2-1 .2-2 .4-3 .6s-2 .3-3.1.5c18-6.9 29.3-20.2 37.5-36.6-4.7 3.2-12.4 7.4-21.6 9.5-1.2.3-2.5.5-3.8.7-.3 0-.6.1-1 .1 6.2-2.6 11.5-5.5 16.1-9 1-.7 1.9-1.5 2.8-2.3 1.4-1.2 2.7-2.5 4-3.8.8-.9 1.6-1.7 2.4-2.6 1.8-2.1 3.5-4.4 5-6.9.5-.8 1-1.5 1.4-2.3.6-1.2 1.2-2.3 1.7-3.4 2.5-5 4.5-9.5 6.1-13.5.8-2 1.5-3.8 2.1-5.5.2-.7.5-1.3.7-2 .6-1.9 1.2-3.6 1.6-5.1.6-2.2 1-4 1.2-5.3-.6.5-1.3 1-2.1 1.4-5.4 3.2-14.7 6.2-22.2 7.6l14.8-1.6-14.8 1.6c-.1 0-.2 0-.3.1-.7.1-1.5.2-2.3.4.1-.1.3-.1.4-.2l-50.6 5.5c.1.4 0 .6-.1.7z" fill="url(#h)"/><path d="m245.4 88.4c-4.5 6.9-9.4 14.8-14.7 23.6-.3.5-.6.9-.8 1.4-4.6 7.7-9.4 16.1-14.5 25.4-4.4 8-9 16.5-13.8 25.8-4.2 8-8.4 16.5-12.9 25.5l50.6-5.5c14.7-6.8 21.3-12.9 27.7-21.8 1.7-2.4 3.4-5 5.1-7.7 5.2-8.1 10.3-17 14.8-25.9 4.4-8.6 8.3-17.1 11.2-24.7 1.9-4.9 3.4-9.4 4.5-13.4.9-3.5 1.6-6.8 2.2-10-19.6 3.3-43.7 6.5-59.4 7.3z" fill="url(#i)"/><path d="m212.7 262.8c-1 .2-2 .3-3.1.5 1-.2 2-.4 3.1-.5z" fill="#be202e"/><path d="m212.7 262.8c-1 .2-2 .3-3.1.5 1-.2 2-.4 3.1-.5z" fill="#be202e" opacity=".35"/><path d="m212.7 262.8c-1 .2-2 .3-3.1.5 1-.2 2-.4 3.1-.5z" fill="url(#j)"/><path d="m220.7 236.9c.3 0 .6-.1 1-.1-.3 0-.6.1-1 .1z" fill="#be202e"/><path d="m220.7 236.9c.3 0 .6-.1 1-.1-.3 0-.6.1-1 .1z" fill="#be202e" opacity=".35"/><path d="m220.7 236.9c.3 0 .6-.1 1-.1-.3 0-.6.1-1 .1z" fill="url(#k)"/></g></svg>