<svg enable-background="new 0 0 511.998 511.998" viewBox="0 0 511.998 511.998" xmlns="http://www.w3.org/2000/svg"><path d="m374.277 221.946c-4.95-3.61-11.05-5.74-17.65-5.74-5.46 0-10.59 1.46-15 4.03-8.97 5.18-15 14.87-15 25.97v28.6 1l-.01.01h-72.241v80.391h110.252v-90.001l20.41-29.65c-2.011-5.91-5.81-11-10.761-14.61z" fill="#ffb578"/><path d="m370.522 219.621c-.104-.053-.35-.175-.942-.459-9.015-4.33-19.507-3.845-27.946 1.07-16.208-9.429-37.092-1.681-43.308 16.024h-.01c-.56-.03-1.12-.05-1.69-.05-16.57 0-30 13.43-30 30l-12.25 9.61v80.391h110.252v-90.001l20.41-29.65c-4.349-12.787-15.532-17.486-14.516-16.935z" fill="#ce795f"/><path d="m390.468 236.216c-1.85-.05-3.67.07-5.43.34-14.39 2.21-25.41 14.64-25.41 29.65v30c0 14.58-5.7 27.86-15 37.711-10.04 10.64-24.26 17.29-40.001 17.29h-1.72c-13.74 0-28.07-4.24-39.291-11.83 11.62-8.5 25.71-13.17 40.291-13.17h.15c16.153 0 29.846-12.54 30.541-28.678.361-8.387-2.735-16.064-7.982-21.712-.25-.28-.51-.55-.78-.82-5.43-5.43-12.93-8.79-21.21-8.79h-8-30-32c-.89.02-1.78.04-2.66.08-54.631 2.32-97.341 48.121-97.341 102.801 0 5.48-1.09 10.85-3.15 15.82s-5.09 9.54-8.96 13.41l-22.015 22.013c-7.079 7.079-7.084 18.502-.104 25.679.726.747 1.459 1.49 2.197 2.228 23.605 23.605 51.734 41.045 82.431 51.512 6.53 2.227 13.762.467 18.64-4.411 12.73-12.73 28.47-22.03 45.771-26.96 52.411-14.93 99.451-43.051 138.842-81.981 10.11-10.71 17.94-23.07 23.25-36.441 5.32-13.36 8.1-27.72 8.1-42.441v-11.31-29.38c0-16.34-12.82-30.16-29.159-30.61z" fill="#ffb578"/><path d="m320.821 270.963c-6.756 6.276-12.945 10.837-15.259 19.089-.99 3.529-4.203 5.95-7.858 6.215-9.437.684-18.949 2.733-27.618 5.917-11.696 4.295-16.493 17.854-10.927 28.591l4.459 8.601c20.047-14.664 41.441-13.17 40.441-13.17 30.564.001 41.817-39.124 16.762-55.243z" fill="#ce795f"/><path d="m405.082 240.602c-9.498 5.235-15.455 15.136-15.455 26.225v40.69c0 10.846-2.012 21.397-5.981 31.367-3.904 9.831-9.572 18.766-16.846 26.56-36.306 35.764-78.556 60.687-125.586 74.083-22.108 6.3-42.429 18.265-58.763 34.599-5.752 5.752-8.832 13.385-8.758 21.395 3.735 1.517 7.514 2.927 11.332 4.229 6.53 2.227 13.761.467 18.64-4.411 12.73-12.73 28.47-22.03 45.771-26.96 52.411-14.93 99.451-43.051 138.842-81.981 10.11-10.71 17.94-23.07 23.25-36.441 5.32-13.36 8.1-27.72 8.1-42.441v-11.31-29.38c0-10.978-5.792-20.812-14.546-26.224z" fill="#ce795f"/><path d="m199.65 27.342 72.205-19.347c7.586-2.033 15.384 2.469 17.417 10.056l19.347 72.205c2.033 7.586-2.469 15.384-10.056 17.417l-72.205 19.347c-7.586 2.033-15.384-2.469-17.417-10.056l-19.347-72.205c-2.032-7.587 2.47-15.384 10.056-17.417z" fill="#ff5368"/><path d="m308.62 90.256-19.347-72.206c-2.033-7.586-9.83-12.088-17.417-10.056l-15.242 4.084 18.944 70.7-70.7 18.944 4.084 15.241c2.033 7.586 9.83 12.088 17.417 10.056l72.206-19.347c7.586-2.032 12.088-9.83 10.055-17.416z" fill="#c5324f"/><path d="m248.561 150.352-72.205-19.347c-7.586-2.033-15.384 2.469-17.417 10.056l-19.347 72.205c-2.033 7.586 2.469 15.384 10.056 17.417l72.205 19.347c7.586 2.033 15.384-2.469 17.417-10.056l19.347-72.205c2.032-7.587-2.47-15.385-10.056-17.417z" fill="#ff5368"/><path d="m248.561 150.352-15.241-4.084-18.944 70.7-70.7-18.943-4.084 15.241c-2.033 7.586 2.469 15.384 10.055 17.417l72.206 19.347c7.586 2.033 15.384-2.469 17.417-10.055l19.347-72.205c2.032-7.588-2.47-15.386-10.056-17.418z" fill="#c5324f"/><path d="m201.698 118.905c1.501 5.604 5.095 10.288 10.12 13.189 3.347 1.932 7.061 2.919 10.824 2.919 1.887 0 3.786-.248 5.658-.75l72.205-19.347c11.567-3.101 18.457-15.033 15.358-26.603l-19.346-72.203c-1.501-5.604-5.095-10.288-10.119-13.189s-10.876-3.674-16.482-2.17l-72.206 19.347c-11.568 3.101-18.458 15.034-15.358 26.603zm-.107-84.319 72.205-19.347c1.735-.464 3.545-.226 5.101.672 1.554.897 2.666 2.347 3.131 4.081l19.348 72.204c.958 3.58-1.174 7.272-4.753 8.232l-72.205 19.347c-1.735.465-3.546.227-5.101-.671-1.554-.897-2.666-2.347-3.131-4.081l-19.348-72.205c-.959-3.58 1.174-7.272 4.753-8.232z"/><ellipse cx="224.606" cy="53.364" rx="7.5" ry="7.5"/><ellipse cx="263.246" cy="43.014" rx="7.5" ry="7.5"/><ellipse cx="229.776" cy="72.684" rx="7.5" ry="7.5"/><ellipse cx="268.416" cy="62.338" rx="7.5" ry="7.5"/><ellipse cx="234.955" cy="92.004" rx="7.5" ry="7.5"/><ellipse cx="273.596" cy="81.659" rx="7.5" ry="7.5"/><path d="m147.705 237.925 72.211 19.351c1.83.489 3.71.739 5.601.739h.04c9.779 0 18.399-6.62 20.96-16.1l19.34-72.211c.5-1.83.75-3.73.75-5.63 0-9.79-6.62-18.41-16.101-20.971l-19.02-5.09c-.25-.069-.49-.12-.73-.16-.399-.069-.81-.1-1.21-.1-3.39 0-6.37 2.29-7.239 5.56-.181.65-.261 1.311-.261 1.961.011 3.38 2.29 6.35 5.561 7.22l19.01 5.1c2.93.771 4.98 3.44 4.99 6.48 0 .6-.08 1.17-.23 1.76l-19.35 72.201c-.771 2.93-3.44 4.979-6.48 4.979-.6 0-1.17-.08-1.75-.229l-72.211-19.351c-2.93-.77-4.979-3.439-4.979-6.479 0-.59.069-1.16.229-1.75l19.351-72.201c.77-2.94 3.43-4.99 6.479-4.99.58 0 1.17.08 1.75.23l24.21 6.49c.641.17 1.29.26 1.94.26 3.39 0 6.37-2.29 7.25-5.561.51-1.939.25-3.96-.75-5.689-1-1.73-2.61-2.97-4.54-3.49-.01 0-.01-.01-.021-.01l-24.21-6.48c-1.84-.5-3.729-.75-5.63-.75h-.01c-9.79 0-18.41 6.62-20.96 16.11l-19.35 72.201c-.5 1.85-.75 3.739-.74 5.63-.011 9.781 6.609 18.411 16.1 20.97z"/><ellipse cx="184.956" cy="166.015" rx="7.5" ry="7.5"/><ellipse cx="223.59" cy="176.371" rx="7.5" ry="7.5"/><ellipse cx="174.601" cy="204.672" rx="7.5" ry="7.5"/><ellipse cx="213.235" cy="215.019" rx="7.5" ry="7.5"/><path d="m390.676 228.812c-.291-.008-.581-.013-.871-.014-6.408-12.168-19.101-20.009-33.178-20.009-5.327 0-10.399 1.117-14.993 3.129-4.711-2.056-9.827-3.129-15.007-3.129-14.417 0-26.96 8.181-33.233 20.147-16.657 1.43-30.239 13.799-33.513 29.873h-25.254c-.044 0-.088 0-.132.001-29.732.533-57.066 12.9-77.145 34.213-19.49 20.689-30.225 47.754-30.225 76.207 0 9.043-3.521 17.544-9.912 23.938l-30.142 30.154c-2.929 2.93-2.929 7.681 0 10.611 2.93 2.93 7.678 2.93 10.607 0l30.142-30.154c9.225-9.228 14.305-21.498 14.305-34.549 0-51.899 40.594-94.472 92.57-95.416h69.932c12.406 0 22.5 10.097 22.5 22.509s-10.094 22.509-22.5 22.509h-.716c-16.178 0-31.638 5.052-44.713 14.611-.008.005-.015.011-.022.016-3.181 2.333-6.159 4.883-8.854 7.578-2.849 2.85-2.938 7.442-.202 10.401 2.738 2.958 7.322 3.226 10.381.606l3.832-3.279c49.302 27.735 102.794-3.784 102.794-52.444v-30.011c0-11.42 8.39-20.506 18.787-22.209.165-.019.331-.044.496-.075 1.26-.178 2.548-.251 3.854-.216 12.055.331 21.862 10.704 21.862 23.125v40.704c0 27.482-10.376 53.641-29.223 73.673-39.089 38.618-84.682 65.544-135.523 80.038-18.438 5.257-35.387 15.241-49.016 28.876l-8.959 8.962c-2.93 2.93-2.93 7.681-.001 10.611 1.465 1.466 3.384 2.198 5.304 2.198 1.919 0 3.839-.733 5.303-2.197l8.96-8.962c11.827-11.833 26.53-20.497 42.521-25.055 53.335-15.205 101.128-43.431 142.052-83.891.063-.062.124-.125.185-.188 21.537-22.841 33.398-52.696 33.398-84.064v-40.704c.002-20.471-16.352-37.573-36.451-38.124zm-101.549 17.492v12.505h-13.715c2.266-6.393 7.342-11.467 13.735-13.727-.013.406-.02.813-.02 1.222zm30 0v15.423c-4.463-1.879-9.362-2.918-14.5-2.918h-.5v-12.505c0-12.412 10.094-22.509 22.5-22.509h.018c-4.719 6.275-7.518 14.071-7.518 22.509zm33 20.008v30.012c0 25.891-20.959 47.52-47.501 47.52-8.686 0-16.627-1.049-25.65-4.663 7.784-3.517 16.23-5.341 24.935-5.341h.716c20.678 0 37.501-16.829 37.501-37.516 0-8.722-2.991-16.758-8-23.136v-26.884c0-12.412 10.094-22.509 22.5-22.509 6.93 0 13.3 3.165 17.489 8.332-12.498 5.69-21.99 18.478-21.99 34.185z"/></svg>