<?xml version="1.0" encoding="iso-8859-1"?>
<!-- Generator: Adobe Illustrator 19.0.0, SVG Export Plug-In . SVG Version: 6.00 Build 0)  -->
<svg version="1.1" id="Capa_1" xmlns="http://www.w3.org/2000/svg" xmlns:xlink="http://www.w3.org/1999/xlink" x="0px" y="0px"
	 viewBox="0 0 512 512" style="enable-background:new 0 0 512 512;" xml:space="preserve">
<path style="fill:#F5D7B7;" d="M196.948,7.5C111.069,7.5,41.45,77.119,41.45,162.997v237.536
	c0,57.988,47.009,103.966,104.997,103.966c46.338,0,74.644-23.925,91.383-83.016c28.283-99.843,114.615-124.164,114.615-258.487
	C352.445,77.119,282.826,7.5,196.948,7.5z"/>
<path style="opacity:0.05;enable-background:new    ;" d="M226.127,453.226C38.27,471.517,50.381,173.953,67.739,76.464
	c-16.6,24.738-26.289,54.503-26.289,86.533v237.536c0,57.988,47.009,103.966,104.997,103.966
	C183.367,504.5,208.831,489.288,226.127,453.226z"/>
<path style="opacity:0.05;enable-background:new    ;" d="M100.843,237.629c22.61,0,41.005,18.395,41.005,41.005
	c0,10.952-4.265,21.25-12.01,28.995c-11.344,11.343-15.026,28.279-9.611,44.198c5.262,15.468,17.988,25.951,34.041,28.044
	c31.246,4.072,44.596-20.543,57.501-44.349c3.507-6.47,6.822-12.583,10.453-18.025c5.258-8.302,10.84-16.385,16.239-24.203
	c23.407-33.891,45.515-65.903,45.515-119.306c0-51.814-42.154-93.967-93.967-93.967c-27.506,0-52.289,11.88-69.489,30.777
	c23.154-3.618,52.212,3.288,73.82,19.375c14.615,10.881,24.899,25.321,29.741,41.76c5.595,18.996,4.107,40.374-4.422,63.54
	c-1.083,2.943-3.869,4.767-6.833,4.767c-0.835,0-1.685-0.145-2.515-0.45c-3.773-1.389-5.706-5.574-4.316-9.347
	c7.925-21.527,15.82-61.661-20.351-88.59c-26.244-19.538-62.765-21.687-79.19-10.83c-6.652,12.884-10.413,27.494-10.413,42.966
	c0,4.014-3.249,7.268-7.261,7.279c0.116,17.038,0.927,47.163,6.606,58.833C96.721,238.588,98.668,237.629,100.843,237.629z"/>
<path d="M257.764,88.979c-19.17-15.308-43.232-23.738-67.753-23.738c-59.964,0-108.748,48.784-108.748,108.748
	c0,4.142,3.358,7.5,7.5,7.5s7.5-3.358,7.5-7.5c0-15.417,3.743-29.975,10.364-42.817c16.385-10.78,52.742-8.609,78.889,10.857
	c36.056,26.843,28.18,66.868,20.275,88.337c-1.431,3.887,0.56,8.198,4.447,9.629c0.855,0.315,1.73,0.464,2.59,0.464
	c3.053,0,5.923-1.878,7.039-4.911c8.545-23.211,10.035-44.635,4.426-63.678c-4.855-16.485-15.167-30.965-29.82-41.874
	c-21.461-15.978-50.259-22.909-73.372-19.498c17.142-18.591,41.688-30.258,68.91-30.258c21.439,0,41.631,7.075,58.393,20.46
	c16.277,12.997,27.909,31.219,32.753,51.307c0.971,4.027,5.022,6.506,9.049,5.533c4.026-0.971,6.504-5.022,5.533-9.049
	C290.117,125.18,276.631,104.045,257.764,88.979z M106.235,356.586c7.116,20.92,24.359,35.104,46.124,37.94
	c3.038,0.396,5.99,0.594,8.864,0.594c14.667,0,27.26-5.172,38.29-15.681c10.878-10.363,18.514-24.448,25.251-36.875
	c3.356-6.191,6.527-12.039,9.797-16.931c0.035-0.052,0.069-0.104,0.102-0.157c5.106-8.066,10.62-16.051,15.961-23.784
	c23.227-33.63,45.166-65.396,47.862-117.137c0.216-4.136-2.963-7.665-7.1-7.88c-4.128-0.212-7.665,2.963-7.88,7.1
	c-2.475,47.496-23.241,77.561-45.233,109.404c-5.4,7.819-10.983,15.904-16.235,24.196c-3.636,5.45-6.952,11.566-10.462,18.04
	c-12.87,23.74-26.167,48.29-57.279,44.236c-15.969-2.082-28.627-12.51-33.862-27.897c-5.388-15.839-1.725-32.688,9.558-43.971
	c7.787-7.786,12.075-18.139,12.075-29.15c0-22.732-18.493-41.225-41.225-41.225c-4.142,0-7.5,3.358-7.5,7.5s3.358,7.5,7.5,7.5
	c14.46,0,26.225,11.764,26.225,26.225c0,7.005-2.728,13.59-7.681,18.544C104.032,312.532,98.992,335.296,106.235,356.586z
	 M475.853,306.94c-6.692-6.692-10.377-15.573-10.377-25.006s3.685-18.313,10.377-25.005c2.929-2.929,2.929-7.677,0-10.606
	c-2.929-2.93-7.678-2.929-10.607,0c-9.525,9.524-14.771,22.172-14.771,35.612s5.246,26.087,14.771,35.612
	c1.464,1.464,3.384,2.197,5.303,2.197s3.839-0.732,5.303-2.197C478.782,314.617,478.782,309.868,475.853,306.94z M196.948,0
	C107.071,0,33.95,73.121,33.95,162.998v237.536c0,22.068,6.402,43.346,18.513,61.534c2.296,3.448,6.952,4.38,10.4,2.085
	c3.447-2.296,4.381-6.952,2.085-10.4c-10.466-15.717-15.999-34.12-15.999-53.219V162.998C48.95,81.392,115.342,15,196.948,15
	s147.997,66.392,147.997,147.998c0,77.495-29.077,116.418-59.862,157.627c-20.968,28.069-42.65,57.093-54.469,98.815
	c-7.961,28.103-18.55,47.768-32.373,60.118C184.923,491.458,168.465,497,146.447,497c-21.659,0-42.129-6.792-59.198-19.64
	c-3.311-2.491-8.011-1.828-10.503,1.481c-2.491,3.31-1.828,8.012,1.481,10.503c19.69,14.821,43.28,22.656,68.22,22.656
	c50.858,0,81.267-27.286,98.6-88.472c11.063-39.054,30.974-65.707,52.054-93.926c30.897-41.358,62.845-84.126,62.845-166.605
	C359.945,73.121,286.825,0,196.948,0z M444.181,214.649c-2.929-2.929-7.678-2.929-10.607,0
	c-17.999,17.999-27.912,41.895-27.912,67.284c0,25.39,9.913,49.285,27.912,67.284c1.464,1.464,3.384,2.197,5.303,2.197
	c1.92,0,3.839-0.733,5.303-2.197c2.929-2.929,2.929-7.678,0-10.607c-15.166-15.166-23.518-35.294-23.518-56.678
	s8.352-41.512,23.518-56.678C447.11,222.327,447.11,217.578,444.181,214.649z M375.851,281.934
	c0-33.391,13.003-64.783,36.614-88.394c2.929-2.929,2.929-7.678,0-10.607s-7.678-2.929-10.607,0
	c-26.444,26.444-41.007,61.604-41.007,99c0,37.398,14.564,72.557,41.007,99.001c1.464,1.464,3.384,2.197,5.303,2.197
	s3.839-0.732,5.303-2.197c2.929-2.929,2.929-7.678,0-10.607C388.853,346.717,375.851,315.325,375.851,281.934z"/>
<g>
</g>
<g>
</g>
<g>
</g>
<g>
</g>
<g>
</g>
<g>
</g>
<g>
</g>
<g>
</g>
<g>
</g>
<g>
</g>
<g>
</g>
<g>
</g>
<g>
</g>
<g>
</g>
<g>
</g>
</svg>
