<svg enable-background="new 0 0 512 512" viewBox="0 0 512 512" xmlns="http://www.w3.org/2000/svg"><path d="m196.948 7.5c-85.879 0-155.498 69.619-155.498 155.497v237.536c0 57.988 47.009 103.966 104.997 103.966 46.338 0 74.644-23.925 91.383-83.016 28.283-99.843 114.615-124.164 114.615-258.487 0-85.877-69.619-155.496-155.497-155.496z" fill="#f5d7b7"/><path d="m226.127 453.226c-187.857 18.291-175.746-279.273-158.388-376.762-16.6 24.738-26.289 54.503-26.289 86.533v237.536c0 57.988 47.009 103.966 104.997 103.966 36.92.001 62.384-15.211 79.68-51.273z" opacity=".05"/><path d="m100.843 237.629c22.61 0 41.005 18.395 41.005 41.005 0 10.952-4.265 21.25-12.01 28.995-11.344 11.343-15.026 28.279-9.611 44.198 5.262 15.468 17.988 25.951 34.041 28.044 31.246 4.072 44.596-20.543 57.501-44.349 3.507-6.47 6.822-12.583 10.453-18.025 5.258-8.302 10.84-16.385 16.239-24.203 23.407-33.891 45.515-65.903 45.515-119.306 0-51.814-42.154-93.967-93.967-93.967-27.506 0-52.289 11.88-69.489 30.777 23.154-3.618 52.212 3.288 73.82 19.375 14.615 10.881 24.899 25.321 29.741 41.76 5.595 18.996 4.107 40.374-4.422 63.54-1.083 2.943-3.869 4.767-6.833 4.767-.835 0-1.685-.145-2.515-.45-3.773-1.389-5.706-5.574-4.316-9.347 7.925-21.527 15.82-61.661-20.351-88.59-26.244-19.538-62.765-21.687-79.19-10.83-6.652 12.884-10.413 27.494-10.413 42.966 0 4.014-3.249 7.268-7.261 7.279.116 17.038.927 47.163 6.606 58.833 1.335-1.513 3.282-2.472 5.457-2.472z" opacity=".05"/><path d="m257.764 88.979c-19.17-15.308-43.232-23.738-67.753-23.738-59.964 0-108.748 48.784-108.748 108.748 0 4.142 3.358 7.5 7.5 7.5s7.5-3.358 7.5-7.5c0-15.417 3.743-29.975 10.364-42.817 16.385-10.78 52.742-8.609 78.889 10.857 36.056 26.843 28.18 66.868 20.275 88.337-1.431 3.887.56 8.198 4.447 9.629.855.315 1.73.464 2.59.464 3.053 0 5.923-1.878 7.039-4.911 8.545-23.211 10.035-44.635 4.426-63.678-4.855-16.485-15.167-30.965-29.82-41.874-21.461-15.978-50.259-22.909-73.372-19.498 17.142-18.591 41.688-30.258 68.91-30.258 21.439 0 41.631 7.075 58.393 20.46 16.277 12.997 27.909 31.219 32.753 51.307.971 4.027 5.022 6.506 9.049 5.533 4.026-.971 6.504-5.022 5.533-9.049-5.622-23.311-19.108-44.446-37.975-59.512zm-151.529 267.607c7.116 20.92 24.359 35.104 46.124 37.94 3.038.396 5.99.594 8.864.594 14.667 0 27.26-5.172 38.29-15.681 10.878-10.363 18.514-24.448 25.251-36.875 3.356-6.191 6.527-12.039 9.797-16.931.035-.052.069-.104.102-.157 5.106-8.066 10.62-16.051 15.961-23.784 23.227-33.63 45.166-65.396 47.862-117.137.216-4.136-2.963-7.665-7.1-7.88-4.128-.212-7.665 2.963-7.88 7.1-2.475 47.496-23.241 77.561-45.233 109.404-5.4 7.819-10.983 15.904-16.235 24.196-3.636 5.45-6.952 11.566-10.462 18.04-12.87 23.74-26.167 48.29-57.279 44.236-15.969-2.082-28.627-12.51-33.862-27.897-5.388-15.839-1.725-32.688 9.558-43.971 7.787-7.786 12.075-18.139 12.075-29.15 0-22.732-18.493-41.225-41.225-41.225-4.142 0-7.5 3.358-7.5 7.5s3.358 7.5 7.5 7.5c14.46 0 26.225 11.764 26.225 26.225 0 7.005-2.728 13.59-7.681 18.544-15.355 15.355-20.395 38.119-13.152 59.409zm369.618-49.646c-6.692-6.692-10.377-15.573-10.377-25.006s3.685-18.313 10.377-25.005c2.929-2.929 2.929-7.677 0-10.606-2.929-2.93-7.678-2.929-10.607 0-9.525 9.524-14.771 22.172-14.771 35.612s5.246 26.087 14.771 35.612c1.464 1.464 3.384 2.197 5.303 2.197s3.839-.732 5.303-2.197c2.93-2.93 2.93-7.679.001-10.607zm-278.905-306.94c-89.877 0-162.998 73.121-162.998 162.998v237.536c0 22.068 6.402 43.346 18.513 61.534 2.296 3.448 6.952 4.38 10.4 2.085 3.447-2.296 4.381-6.952 2.085-10.4-10.466-15.717-15.999-34.12-15.999-53.219v-237.536c.001-81.606 66.393-147.998 147.999-147.998s147.997 66.392 147.997 147.998c0 77.495-29.077 116.418-59.862 157.627-20.968 28.069-42.65 57.093-54.469 98.815-7.961 28.103-18.55 47.768-32.373 60.118-13.318 11.9-29.776 17.442-51.794 17.442-21.659 0-42.129-6.792-59.198-19.64-3.311-2.491-8.011-1.828-10.503 1.481-2.491 3.31-1.828 8.012 1.481 10.503 19.69 14.821 43.28 22.656 68.22 22.656 50.858 0 81.267-27.286 98.6-88.472 11.063-39.054 30.974-65.707 52.054-93.926 30.897-41.358 62.845-84.126 62.845-166.605-.001-89.876-73.121-162.997-162.998-162.997zm247.233 214.649c-2.929-2.929-7.678-2.929-10.607 0-17.999 17.999-27.912 41.895-27.912 67.284 0 25.39 9.913 49.285 27.912 67.284 1.464 1.464 3.384 2.197 5.303 2.197 1.92 0 3.839-.733 5.303-2.197 2.929-2.929 2.929-7.678 0-10.607-15.166-15.166-23.518-35.294-23.518-56.678s8.352-41.512 23.518-56.678c2.93-2.927 2.93-7.676.001-10.605zm-68.33 67.285c0-33.391 13.003-64.783 36.614-88.394 2.929-2.929 2.929-7.678 0-10.607s-7.678-2.929-10.607 0c-26.444 26.444-41.007 61.604-41.007 99 0 37.398 14.564 72.557 41.007 99.001 1.464 1.464 3.384 2.197 5.303 2.197s3.839-.732 5.303-2.197c2.929-2.929 2.929-7.678 0-10.607-23.611-23.61-36.613-55.002-36.613-88.393z"/></svg>