<svg height="1740" viewBox="0 0 2014.2857 1740" width="2014.2856" xmlns="http://www.w3.org/2000/svg" xmlns:xlink="http://www.w3.org/1999/xlink"><filter id="a" color-interpolation-filters="sRGB" height="1.2009" width="1.2009" x="-.10044" y="-.10044"><feGaussianBlur stdDeviation="10.713656"/></filter><linearGradient id="b" gradientUnits="userSpaceOnUse" x1="2269.1228" x2="2028.7067" y1="119.49608" y2="159.90219"><stop offset="0" stop-color="#fff" stop-opacity=".528216"/><stop offset="1" stop-color="#fff" stop-opacity="0"/></linearGradient><radialGradient id="c" cx="2119.9783" cy="57.940441" gradientTransform="matrix(1.3312083 .04698382 -.03527215 .99937774 -694.40757 -98.622121)" gradientUnits="userSpaceOnUse" r="129"><stop offset="0" stop-color="#fff"/><stop offset="1" stop-color="#fff" stop-opacity="0"/></radialGradient><g transform="translate(-1752.0043 1154.92)"><g fill-rule="evenodd"><g fill="#1e90ff" transform="translate(443.16719 -116.148)"><path d="m1630.4307-141.35212h240l8 234.000003c-83.416-15.342-168.28-19.084-256 0z" fill="#000" filter="url(#a)"/><g transform="translate(-400.02041 -117.1777)"><path d="m2020.4308-52.235355h256v256h-256z"/><path d="m2020.4308-52.235355h256v256h-256z" fill="url(#b)" stroke="url(#c)" stroke-width="2"/></g></g><g fill="#ff0" transform="translate(1111.7386 -544.71943)"><path d="m1630.4307-141.35212h240l8 234.000003c-83.416-15.342-168.28-19.084-256 0z" fill="#000" filter="url(#a)"/><g transform="translate(-400.02041 -117.1777)"><path d="m2020.4308-52.235355h256v256h-256z"/><path d="m2020.4308-52.235355h256v256h-256z" fill="url(#b)" stroke="url(#c)" stroke-width="2"/></g></g><g fill="#00bfff" transform="translate(1043.1671 -796.148)"><path d="m1630.4307-141.35212h240l8 234.000003c-83.416-15.342-168.28-19.084-256 0z" fill="#000" filter="url(#a)"/><g transform="translate(-400.02041 -117.1777)"><path d="m2020.4308-52.235355h256v256h-256z"/><path d="m2020.4308-52.235355h256v256h-256z" fill="url(#b)" stroke="url(#c)" stroke-width="2"/></g></g><g fill="#ff4500" transform="translate(1568.8814 -756.148)"><path d="m1630.4307-141.35212h240l8 234.000003c-83.416-15.342-168.28-19.084-256 0z" fill="#000" filter="url(#a)"/><g transform="translate(-400.02041 -117.1777)"><path d="m2020.4308-52.235355h256v256h-256z"/><path d="m2020.4308-52.235355h256v256h-256z" fill="url(#b)" stroke="url(#c)" stroke-width="2"/></g></g><g fill="#ff0" transform="translate(1620.31 -36.148)"><path d="m1630.4307-141.35212h240l8 234.000003c-83.416-15.342-168.28-19.084-256 0z" fill="#000" filter="url(#a)"/><g transform="translate(-400.02041 -117.1777)"><path d="m2020.4308-52.235355h256v256h-256z"/><path d="m2020.4308-52.235355h256v256h-256z" fill="url(#b)" stroke="url(#c)" stroke-width="2"/></g></g><g fill="#f00" transform="translate(334.59571 -424.71942)"><path d="m1630.4307-141.35212h240l8 234.000003c-83.416-15.342-168.28-19.084-256 0z" fill="#000" filter="url(#a)"/><g transform="translate(-400.02041 -117.1777)"><path d="m2020.4308-52.235355h256v256h-256z"/><path d="m2020.4308-52.235355h256v256h-256z" fill="url(#b)" stroke="url(#c)" stroke-width="2"/></g></g><g fill="#f00" transform="translate(1580.31 318.13767)"><path d="m1630.4307-141.35212h240l8 234.000003c-83.416-15.342-168.28-19.084-256 0z" fill="#000" filter="url(#a)"/><g transform="translate(-400.02041 -117.1777)"><path d="m2020.4308-52.235355h256v256h-256z"/><path d="m2020.4308-52.235355h256v256h-256z" fill="url(#b)" stroke="url(#c)" stroke-width="2"/></g></g><g fill="#0f0" transform="translate(1637.4529 -550.43372)"><path d="m1630.4307-141.35212h240l8 234.000003c-83.416-15.342-168.28-19.084-256 0z" fill="#000" filter="url(#a)"/><g transform="translate(-400.02041 -117.1777)"><path d="m2020.4308-52.235355h256v256h-256z"/><path d="m2020.4308-52.235355h256v256h-256z" fill="url(#b)" stroke="url(#c)" stroke-width="2"/></g></g><g fill="#f00" transform="translate(340.30999 215.2806)"><path d="m1630.4307-141.35212h240l8 234.000003c-83.416-15.342-168.28-19.084-256 0z" fill="#000" filter="url(#a)"/><g transform="translate(-400.02041 -117.1777)"><path d="m2020.4308-52.235355h256v256h-256z"/><path d="m2020.4308-52.235355h256v256h-256z" fill="url(#b)" stroke="url(#c)" stroke-width="2"/></g></g><g fill="#008080" transform="translate(1645.8567 -246.36267)"><path d="m1630.4307-141.35212h240l8 234.000003c-83.416-15.342-168.28-19.084-256 0z" fill="#000" filter="url(#a)"/><g transform="translate(-400.02041 -117.1777)"><path d="m2020.4308-52.235355h256v256h-256z"/><path d="m2020.4308-52.235355h256v256h-256z" fill="url(#b)" stroke="url(#c)" stroke-width="2"/></g></g></g><path d="m2448.6711-1144.92v1719.99995" fill="none" stroke="#000" stroke-width="2"/><path d="m3072.4807-1144.92v1719.99995" fill="none" stroke="#000" stroke-width="2"/><path d="m3696.2902-1144.92v1719.99999" fill="none" stroke="#000" stroke-width="2"/><path d="m1824.8615-1144.92v1719.99995" fill="none" stroke="#000" stroke-width="2"/><g fill="#ff0" fill-rule="evenodd" transform="translate(460.30997 -750.43372)"><path d="m1630.4307-141.35212h240l8 234.000003c-83.416-15.342-168.28-19.084-256 0z" fill="#000" filter="url(#a)"/><g transform="translate(-400.02041 -117.1777)"><path d="m2020.4308-52.235355h256v256h-256z"/><path d="m2020.4308-52.235355h256v256h-256z" fill="url(#b)" stroke="url(#c)" stroke-width="2"/></g></g><path d="m1762.0043-999.2057h1994.2857" fill="none" stroke="#000"/><g fill="#ff0" fill-rule="evenodd" transform="translate(917.45283 -299.00514)"><path d="m1630.4307-141.35212h240l8 234.000003c-83.416-15.342-168.28-19.084-256 0z" fill="#000" filter="url(#a)"/><g transform="translate(-400.02041 -117.1777)"><path d="m2020.4308-52.235355h256v256h-256z"/><path d="m2020.4308-52.235355h256v256h-256z" fill="url(#b)" stroke="url(#c)" stroke-width="2"/></g></g></g></svg>