<svg xmlns="http://www.w3.org/2000/svg" id="mermaid-1561796450112" width="100%" height="100%" viewBox="0 0 1022 660"><style>#mermaid-1561796450112 .section{stroke:none;opacity:.2}#mermaid-1561796450112 .section0,#mermaid-1561796450112 .section2{fill:#80b3e6}#mermaid-1561796450112 .section1,#mermaid-1561796450112 .section3{fill:#fff;opacity:.2}#mermaid-1561796450112 .sectionTitle0,#mermaid-1561796450112 .sectionTitle1,#mermaid-1561796450112 .sectionTitle2,#mermaid-1561796450112 .sectionTitle3{fill:#333}#mermaid-1561796450112 .sectionTitle{text-anchor:start;text-height:14px}#mermaid-1561796450112 .grid .tick{stroke:#e6e6e6;opacity:.3;shape-rendering:crispEdges}#mermaid-1561796450112 .grid path{stroke-width:0}#mermaid-1561796450112 .today{fill:none;stroke:#d42;stroke-width:2px}#mermaid-1561796450112 .task{stroke-width:2}#mermaid-1561796450112 .taskText{text-anchor:middle}#mermaid-1561796450112 .taskText0,#mermaid-1561796450112 .taskText1,#mermaid-1561796450112 .taskText2,#mermaid-1561796450112 .taskText3{fill:#fff}#mermaid-1561796450112 .task0,#mermaid-1561796450112 .task1,#mermaid-1561796450112 .task2,#mermaid-1561796450112 .task3{fill:#26a;stroke:#1a4d80}#mermaid-1561796450112 .sectionTitle,#mermaid-1561796450112 .taskText{font-family:&apos;Open Sans&apos;;font-size:15px}#mermaid-1561796450112 .grid .tick text{display:none}#mermaid-1561796450112 .grid .tick:nth-child(2n+1){display:none}</style><style>#mermaid-1561796450112{color:rgba(0,0,0,.65)}</style><g fill="none" class="grid" font-family="sans-serif" font-size="10" text-anchor="middle"><path stroke="currentColor" d="M0.5,-600V0.5H722.5V-600" class="domain" transform="translate(225, 610)"/><g class="tick" opacity="1" transform="translate(225, 610) translate(0.5,0)"><line y2="-600" stroke="currentColor"/><text y="3" fill="#000" stroke="none" dy="1em" font-size="10" style="text-anchor:middle">2019-01-01</text></g><g class="tick" opacity="1" transform="translate(225, 610) translate(90.5,0)"><line y2="-600" stroke="currentColor"/><text y="3" fill="#000" stroke="none" dy="1em" font-size="10" style="text-anchor:middle">2019-01-01</text></g><g class="tick" opacity="1" transform="translate(225, 610) translate(181.5,0)"><line y2="-600" stroke="currentColor"/><text y="3" fill="#000" stroke="none" dy="1em" font-size="10" style="text-anchor:middle">2019-01-02</text></g><g class="tick" opacity="1" transform="translate(225, 610) translate(271.5,0)"><line y2="-600" stroke="currentColor"/><text y="3" fill="#000" stroke="none" dy="1em" font-size="10" style="text-anchor:middle">2019-01-02</text></g><g class="tick" opacity="1" transform="translate(225, 610) translate(361.5,0)"><line y2="-600" stroke="currentColor"/><text y="3" fill="#000" stroke="none" dy="1em" font-size="10" style="text-anchor:middle">2019-01-03</text></g><g class="tick" opacity="1" transform="translate(225, 610) translate(451.5,0)"><line y2="-600" stroke="currentColor"/><text y="3" fill="#000" stroke="none" dy="1em" font-size="10" style="text-anchor:middle">2019-01-03</text></g><g class="tick" opacity="1" transform="translate(225, 610) translate(542.5,0)"><line y2="-600" stroke="currentColor"/><text y="3" fill="#000" stroke="none" dy="1em" font-size="10" style="text-anchor:middle">2019-01-04</text></g><g class="tick" opacity="1" transform="translate(225, 610) translate(632.5,0)"><line y2="-600" stroke="currentColor"/><text y="3" fill="#000" stroke="none" dy="1em" font-size="10" style="text-anchor:middle">2019-01-04</text></g><g class="tick" opacity="1" transform="translate(225, 610) translate(722.5,0)"><line y2="-600" stroke="currentColor"/><text y="3" fill="#000" stroke="none" dy="1em" font-size="10" style="text-anchor:middle">2019-01-05</text></g></g><g><rect width="984.5" height="35" x="0" y="48" class="section section0"/><rect width="984.5" height="35" x="0" y="83" class="section section0"/><rect width="984.5" height="35" x="0" y="118" class="section section0"/><rect width="984.5" height="35" x="0" y="153" class="section section0"/><rect width="984.5" height="35" x="0" y="188" class="section section1"/><rect width="984.5" height="35" x="0" y="223" class="section section1"/><rect width="984.5" height="35" x="0" y="258" class="section section1"/><rect width="984.5" height="35" x="0" y="293" class="section section1"/><rect width="984.5" height="35" x="0" y="328" class="section section2"/><rect width="984.5" height="35" x="0" y="363" class="section section2"/><rect width="984.5" height="35" x="0" y="398" class="section section2"/><rect width="984.5" height="35" x="0" y="433" class="section section2"/><rect width="984.5" height="35" x="0" y="468" class="section section3"/><rect width="984.5" height="35" x="0" y="503" class="section section3"/><rect width="984.5" height="35" x="0" y="538" class="section section3"/><rect width="984.5" height="35" x="0" y="573" class="section section3"/></g><g><rect id="ass1" width="181" height="30" x="225" y="50" class="task task0" rx="3" ry="3" transform-origin="315.5px 65px"/><rect id="ass2" width="180" height="30" x="406" y="85" class="task task0" rx="3" ry="3" transform-origin="496px 100px"/><rect id="bss1" width="181" height="30" x="586" y="120" class="task task0" rx="3" ry="3" transform-origin="676.5px 135px"/><rect id="bss2" width="180" height="30" x="767" y="155" class="task task0" rx="3" ry="3" transform-origin="857px 170px"/><rect id="asc1" width="181" height="30" x="225" y="190" class="task task1" rx="3" ry="3" transform-origin="315.5px 205px"/><rect id="asc2" width="180" height="30" x="406" y="225" class="task task1" rx="3" ry="3" transform-origin="496px 240px"/><rect id="bsc1" width="181" height="30" x="225" y="260" class="task task1" rx="3" ry="3" transform-origin="315.5px 275px"/><rect id="bsc2" width="180" height="30" x="406" y="295" class="task task1" rx="3" ry="3" transform-origin="496px 310px"/><rect id="acs1" width="181" height="30" x="225" y="330" class="task task2" rx="3" ry="3" transform-origin="315.5px 345px"/><rect id="acs2" width="181" height="30" x="225" y="365" class="task task2" rx="3" ry="3" transform-origin="315.5px 380px"/><rect id="bcs1" width="180" height="30" x="406" y="400" class="task task2" rx="3" ry="3" transform-origin="496px 415px"/><rect id="bcs2" width="180" height="30" x="406" y="435" class="task task2" rx="3" ry="3" transform-origin="496px 450px"/><rect id="acc1" width="181" height="30" x="225" y="470" class="task task3" rx="3" ry="3" transform-origin="315.5px 485px"/><rect id="acc2" width="181" height="30" x="225" y="505" class="task task3" rx="3" ry="3" transform-origin="315.5px 520px"/><rect id="bcc1" width="181" height="30" x="225" y="540" class="task task3" rx="3" ry="3" transform-origin="315.5px 555px"/><rect id="bcc2" width="181" height="30" x="225" y="575" class="task task3" rx="3" ry="3" transform-origin="315.5px 590px"/><text x="315.5" y="70.5" class="taskText taskText0" font-size="15" text-height="30">A.test1()</text><text x="496" y="105.5" class="taskText taskText0" font-size="15" text-height="30">A.test2()</text><text x="676.5" y="140.5" class="taskText taskText0" font-size="15" text-height="30">B.test1()</text><text x="857" y="175.5" class="taskText taskText0" font-size="15" text-height="30">B.test2()</text><text x="315.5" y="210.5" class="taskText taskText1" font-size="15" text-height="30">A.test1()</text><text x="496" y="245.5" class="taskText taskText1" font-size="15" text-height="30">A.test2()</text><text x="315.5" y="280.5" class="taskText taskText1" font-size="15" text-height="30">B.test1()</text><text x="496" y="315.5" class="taskText taskText1" font-size="15" text-height="30">B.test2()</text><text x="315.5" y="350.5" class="taskText taskText2" font-size="15" text-height="30">A.test1()</text><text x="315.5" y="385.5" class="taskText taskText2" font-size="15" text-height="30">A.test2()</text><text x="496" y="420.5" class="taskText taskText2" font-size="15" text-height="30">B.test1()</text><text x="496" y="455.5" class="taskText taskText2" font-size="15" text-height="30">B.test2()</text><text x="315.5" y="490.5" class="taskText taskText3" font-size="15" text-height="30">A.test1()</text><text x="315.5" y="525.5" class="taskText taskText3" font-size="15" text-height="30">A.test2()</text><text x="315.5" y="560.5" class="taskText taskText3" font-size="15" text-height="30">B.test1()</text><text x="315.5" y="595.5" class="taskText taskText3" font-size="15" text-height="30">B.test2()</text></g><g><text x="10" y="120" class="sectionTitle sectionTitle0">(same_thread, same_thread)</text><text x="10" y="260" class="sectionTitle sectionTitle1">(same_thread, concurrent)</text><text x="10" y="400" class="sectionTitle sectionTitle2">(concurrent, same_thread)</text><text x="10" y="540" class="sectionTitle sectionTitle3">(concurrent, concurrent)</text></g><g class="today"><line x1="32605" x2="32605" y1="25" y2="635" class="today"/></g></svg>