<svg height="752pt" viewBox="0 0 752 752" width="752pt" xmlns="http://www.w3.org/2000/svg" xmlns:xlink="http://www.w3.org/1999/xlink"><clipPath id="a"><path d="m370 563h32v49.793h-32z"/></clipPath><clipPath id="b"><path d="m220 139.21h197v98.789h-197z"/></clipPath><path d="m401.43 563.78c.85156-3.0781-3.0312-4.0273-19.32-8.0039h-.003906c-10.285-2.2891-20.277-5.7383-29.785-10.277l3.6484 13.688h-.003906c6.9062 4.1523 14.305 7.4258 22.023 9.7539 13.355 4.3086 18.941 6.25 16.953 10.75l6.4414-15.914"/><path d="m423.12 510.26c-17.477-2.3203-35.281-1.7031-52.664-4.7344h.003907c-14.832-3.1211-29.109-8.4727-42.34-15.867l6.3945 15.914c18.941 10.562 58.344 17.664 77.145 19.512 4.5.42578 4.7344.71094 4.9727 1.0898l6.4414-15.914"/><path d="m444.77 456.51c-6.9141 6.8203-104.47-2.1797-138.38-21.926l6.6758 17.188c37.887 20.602 123.13 24.059 125.31 20.695l6.3945-15.957"/><path d="m466.46 403.14c-9.9922 14.207-139.42 2.4141-181.52-21.926l6.6289 17.098c48.684 26 163.48 30.734 168.45 20.742l6.4414-15.914"/><path d="m488.14 349.57c-13.969 21.691-172.71 5.6836-223.25-23.297l5.2109 18.422c59.625 31.637 204.07 36.656 211.6 20.836l6.4414-15.914"/><path d="m509.79 296.06c-16.527 26.566-205.72 13.641-266.01-20.836l4.7344 15.863c71.512 37.887 245.5 40.633 254.74 20.887l6.4414-15.914"/><path d="m531.48 242.5c-19.797 32.582-235.32 21.785-307.83-19.512l3.457 14.207c80.84 42.621 285.1 48.637 297.88 20.98l6.4414-15.914"/><g clip-path="url(#a)"><path d="m371.27 596.88c-.85156-2.5117-.85156-8.0039 8.4766-16.527 4.6992-4.2188 9.7891-7.9766 15.203-11.223 3.2695-2.0352 5.8242-3.6484 6.582-5.3516l-6.582 15.863c-1.2812 2.3438-3.0039 4.418-5.0664 6.1094-5.0195 4.7344-16.719 16.242-12.457 26.992l-6.1562-15.863"/></g><path d="m349.62 543.22c-4.2148-14.207 42.621-29.316 68.195-32.297h.003906c1.7812-.12109 3.5508-.35938 5.3008-.71094l-6.4414 15.914c-.99609.61719-1.2305.75781-6.3945 1.8945-28.887 6.3945-58.297 20.742-54.273 31.113l-6.3945-15.914"/><path d="m328.12 489.66c-1.5156-5.3516 1.5156-15.914 38.359-26.566 33.859-9.8047 74.117-10.797 77.953-7.0547v-.003906c.13672.19141.24609.39844.33203.61719l-6.4414 15.961c-10.656-9.707-104.52 10.797-104.19 30.879v-.003907c.050781.69531.19141 1.3828.42578 2.0391l-6.4414-15.867"/><path d="m306.67 436c-8.9961-32.82 131.51-49.773 157.42-36.086 1.043.56641 2.9375 1.5625 2.4141 3.2188l-6.4414 15.914c0-11.508-113-7.2461-142.59 20.934l.003906-.003906c-3.7773 2.6367-5.5312 7.3281-4.4062 11.793l-6.3945-15.914"/><path d="m285.21 382.35c-11.367-41.961 165.33-56.828 199.19-38.406 1.8008.94531 4.7344 2.9844 3.7422 5.6367l-6.4414 15.914c2.8906-18.941-139.85-14.633-181.24 15.535-5.5391 4.0273-11.555 10.277-8.8555 17.285l-6.3945-15.914"/><path d="m263.71 328.64c-12.785-47.645 197.53-68.246 241.95-40.254 2.082 1.3242 5.3984 4.0742 4.1211 7.6719l-6.4414 15.914c4.6875-25.957-168.88-24.535-222.06 11.93-6.9609 4.7344-14.539 12.219-11.27 20.789l-6.3008-16.051"/><path d="m242.26 275.13c-13.688-51.195 223.43-75.773 281.16-44.469 10.277 5.5898 8.668 10.133 8.0977 11.84l-6.4414 15.914c6.3477-31.969-195.96-35.664-262.74 8.3789-8.3828 5.4922-17.523 14.207-13.688 24.246l-6.3945-15.91"/><g clip-path="url(#b)"><path d="m377.61 139.21 4.7344 18.09c-86.855 6.0625-170.91 28.984-161.59 64.219l6.3945 15.914c-4.4062-11.602 6.2969-21.5 16.102-27.75 28.414-18.09 86.238-29.363 144.06-33.387l3.3164 12.691 10.512-13.496 15.297-19.707z"/></g></svg>